<svg enable-background="new 0 0 520 520" height="512" viewBox="0 0 520 520" width="512" xmlns="http://www.w3.org/2000/svg"><g id="_x31_015_x2C__Document_x2C__File_x2C__Folder_x2C__Put_x2C_"><path d="m499.999 269.997h-20v-200c0-33.084-26.916-60-60-60-50.146 0-183.125 0-280 0-33.084 0-60 26.916-60 60v20c0 5.523 4.477 10 10 10h90v80h-11.266c-4.452-17.233-20.13-30-38.735-30h-80c-22.056 0-40 17.944-40 40 .003 324.141-.038 310.203.076 311.162.515 4.46 4.01 8.218 8.842 8.772.923.102 396.566.065 401.083.065 4.205 0 7.961-2.631 9.397-6.583l80-220c2.37-6.51-2.458-13.416-9.397-13.416zm-150-240v70c0 16.542 13.458 30 30 30h28.649l-78.649 94.379-78.65-94.379h28.65c16.542 0 30-13.458 30-30v-70zm-60 0v70c0 5.514-4.486 10-10 10h-50c-3.88 0-7.41 2.245-9.056 5.758-1.646 3.514-1.111 7.663 1.374 10.644l100 120c3.994 4.792 11.366 4.798 15.365 0l100-120c2.483-2.981 3.02-7.129 1.373-10.644-1.646-3.514-5.176-5.758-9.056-5.758h-50c-5.514 0-10-4.486-10-10v-70h50c22.056 0 40 17.944 40 40v200h-260v-80c0-130.738.185-121.864-.431-127.071-1.341-11.306-5.88-22.337-13.812-31.678-.355-.419-.706-.842-1.072-1.251zm-190 50v-10c0-22.056 17.944-40 40-40s40 17.944 40 40v10zm-70 110c0-11.028 8.972-20 20-20h80c11.028 0 20 8.972 20 20 0 5.519 4.478 10 10 10h20v70h-80c-4.205 0-7.961 2.631-9.398 6.583l-60.602 166.655zm382.996 300h-378.72l72.728-200h378.719z"/></g></svg>