<svg id="Capa_1" enable-background="new 0 0 607.771 607.771" height="512" viewBox="0 0 607.771 607.771" width="512" xmlns="http://www.w3.org/2000/svg"><g><g id="Page-1_27_"><g id="_x30_29---Measurements"><path id="Shape_114_" d="m577.382 486.217h-455.828v-455.828c0-16.783-13.605-30.389-30.388-30.389h-60.777c-16.784 0-30.389 13.606-30.389 30.389v546.993c0 16.783 13.605 30.388 30.389 30.388h546.993c16.783 0 30.388-13.605 30.388-30.388v-60.777c0-16.783-13.605-30.388-30.388-30.388zm-557.123 91.165v-546.993c0-5.594 4.535-10.13 10.129-10.13h60.777c5.594 0 10.13 4.535 10.13 10.13v20.259h-10.13c-5.594 0-10.13 4.535-10.13 10.13 0 5.594 4.535 10.129 10.13 10.129h10.13v20.259h-30.388c-5.594 0-10.13 4.535-10.13 10.13 0 5.594 4.535 10.13 10.13 10.13h30.389v20.259h-10.13c-5.594 0-10.13 4.535-10.13 10.13 0 5.594 4.535 10.13 10.13 10.13h10.13v20.259h-30.389c-5.594 0-10.13 4.535-10.13 10.13 0 5.594 4.535 10.13 10.13 10.13h30.389v20.259h-10.13c-5.594 0-10.13 4.535-10.13 10.13s4.535 10.13 10.13 10.13h10.13v20.259h-30.389c-5.594 0-10.13 4.535-10.13 10.129s4.535 10.13 10.13 10.13h30.389v20.259h-10.13c-5.594 0-10.13 4.535-10.13 10.129s4.535 10.13 10.13 10.13h10.13v20.259h-30.389c-5.594 0-10.13 4.535-10.13 10.129s4.535 10.13 10.13 10.13h30.389v20.259h-10.13c-5.594 0-10.13 4.535-10.13 10.129s4.535 10.129 10.13 10.129h10.13v20.259h-30.389c-5.594 0-10.13 4.535-10.13 10.13s4.535 10.129 10.13 10.129h30.389v20.259h-10.13c-5.594 0-10.13 4.535-10.13 10.13s4.535 10.129 10.13 10.129h10.13v20.259h-30.389c-5.594 0-10.13 4.535-10.13 10.13s4.535 10.13 10.13 10.13h30.389v20.259h-10.13c-5.594 0-10.13 4.535-10.13 10.13s4.535 10.129 10.13 10.129h10.13v30.389h-70.907c-5.595-.004-10.13-4.54-10.13-10.134zm567.252 0c0 5.594-4.535 10.13-10.13 10.13h-455.827v-81.036h20.259v10.13c0 5.594 4.535 10.129 10.13 10.129s10.13-4.535 10.13-10.129v-10.13h20.259v30.388c0 5.594 4.535 10.13 10.13 10.13s10.13-4.535 10.13-10.13v-30.388h20.259v10.13c0 5.594 4.535 10.129 10.13 10.129 5.594 0 10.129-4.535 10.129-10.129v-10.13h20.259v30.388c0 5.594 4.535 10.13 10.13 10.13s10.129-4.535 10.129-10.13v-30.388h20.259v10.13c0 5.594 4.535 10.129 10.129 10.129s10.13-4.535 10.13-10.129v-10.13h20.259v30.388c0 5.594 4.535 10.13 10.129 10.13s10.13-4.535 10.13-10.13v-30.388h20.259v10.13c0 5.594 4.535 10.129 10.129 10.129s10.13-4.535 10.13-10.129v-10.13h20.259v30.388c0 5.594 4.535 10.13 10.129 10.13s10.13-4.535 10.13-10.13v-30.388h20.259v10.13c0 5.594 4.535 10.129 10.129 10.129s10.129-4.535 10.129-10.129v-10.13h20.259v30.388c0 5.594 4.535 10.13 10.129 10.13s10.13-4.535 10.13-10.13v-30.388h20.259v10.13c0 5.594 4.535 10.129 10.129 10.129s10.13-4.535 10.13-10.129v-10.13h10.13c5.594 0 10.13 4.535 10.13 10.13v60.776z"/><path id="Shape_113_" d="m585.485 81.786-151.942-77.41c-11.435-5.799-24.95-5.799-36.385 0l-151.942 77.41c-13.802 7.027-22.458 21.242-22.366 36.73v188.409c-.104 15.467 8.517 29.671 22.285 36.719l151.943 77.41c11.433 5.807 24.952 5.807 36.385 0l151.942-77.41c13.799-7.026 22.454-21.235 22.366-36.719v-188.409c.106-15.47-8.515-29.68-22.286-36.73zm-179.17-59.359c5.652-2.876 12.338-2.876 17.99 0l151.943 77.41c.263.142.466.365.729.517l-161.667 80.782-161.667-80.783c.263-.152.466-.375.729-.517zm-151.943 303.176c-6.982-3.598-11.34-10.824-11.264-18.679v-188.408c0-.243.091-.476.101-.719l161.971 80.925v203.714zm333.139-18.679c.072 7.851-4.285 15.073-11.264 18.669l-150.808 76.842v-203.714l161.971-80.935c0 .243.101.476.101.719z"/></g></g></g></svg>