<svg id="Layer_1" height="512" viewBox="0 0 110 110" width="512" xmlns="http://www.w3.org/2000/svg" data-name="Layer 1"><path d="m78.31 67.2-13.86-13.86 24.61-24.61 6.16-2.23a1 1 0 0 0 .53-.44l6.54-11.39a1 1 0 0 0 -.16-1.2l-5.6-5.6a1 1 0 0 0 -1.2-.16l-11.39 6.54a1 1 0 0 0 -.44.53l-2.23 6.22-24.61 24.55-13.86-13.87a19 19 0 0 0 -25.12-24.24 1 1 0 0 0 -.6.73 1 1 0 0 0 .27.91l9.93 9.92-8.28 8.28-9.92-9.93a1 1 0 0 0 -.9-.27 1 1 0 0 0 -.73.6 19 19 0 0 0 24.23 25.12l9.58 9.57a7.31 7.31 0 0 0 -5.43 2.15l-26.1 26.09a7.38 7.38 0 0 0 0 10.39l9.27 9.27a7.38 7.38 0 0 0 10.41 0l26.1-26.1a7.34 7.34 0 0 0 2.14-5.44l9.57 9.58a19 19 0 0 0 25.12 24.25 1 1 0 0 0 .6-.73 1 1 0 0 0 -.27-.91l-9.95-9.92 8.28-8.28 9.92 9.91a1 1 0 0 0 .9.28 1 1 0 0 0 .73-.6 19 19 0 0 0 -24.24-25.11zm4.53-45a1.05 1.05 0 0 0 .23-.36l2.19-6 10.4-6 4.51 4.51-6 10.4-6 2.19a1 1 0 0 0 -.37.23l-24.8 24.75-5-5zm-28.77 50.56-26.07 26.09a5.36 5.36 0 0 1 -7.58 0l-9.27-9.25a5.36 5.36 0 0 1 0-7.58l26.09-26.09a5.36 5.36 0 0 1 7.57 0l7.19 7.16 2.09 2.09a5.37 5.37 0 0 1 -.02 7.58zm47.16 17.35-9.51-9.51a1 1 0 0 0 -1.42 0l-9.7 9.69a1 1 0 0 0 -.29.7 1 1 0 0 0 .29.71l9.52 9.53a17 17 0 0 1 -20.82-22.78 1 1 0 0 0 -.22-1.09l-14.58-14.58-8.26-8.26s0 0 0 0l-13.61-13.6a1 1 0 0 0 -.71-.29 1 1 0 0 0 -.38.07 17 17 0 0 1 -22.77-20.83l9.53 9.53a1 1 0 0 0 1.41 0l9.69-9.69a1 1 0 0 0 0-1.41l-9.52-9.53a17 17 0 0 1 20.82 22.77 1 1 0 0 0 .22 1.09l15 15s0 0 0 0l6.38 6.38 15 15a1 1 0 0 0 1.09.22 17 17 0 0 1 22.78 20.81zm-62.41-24-17.5 17.49a1 1 0 0 1 -.7.29 1 1 0 0 1 -.71-.29 1 1 0 0 1 0-1.42l17.49-17.49a1 1 0 0 1 1.42 1.42zm6.49 5.08a1 1 0 0 1 0 1.41l-17.49 17.49a1 1 0 0 1 -1.42 0 1 1 0 0 1 0-1.41l17.49-17.49a1 1 0 0 1 1.42 0z"/></svg>